<svg width="263" height="32" viewBox="0 0 263 32" fill="none" xmlns="http://www.w3.org/2000/svg">
<path d="M249.446 18.0982L252.921 20.5317L261.033 8.94716" stroke="#67BECE" stroke-width="2" stroke-linecap="round" stroke-linejoin="round"/>
<path d="M183.804 12.176C183.068 12.176 182.438 11.9733 181.916 11.568C181.393 11.1627 180.993 10.608 180.716 9.904C180.449 9.2 180.316 8.4 180.316 7.504C180.316 6.50133 180.55 5.552 181.02 4.656C181.489 3.74933 182.102 3.024 182.86 2.48C183.628 1.92533 184.422 1.648 185.244 1.648C185.937 1.648 186.47 1.80267 186.844 2.112C187.217 2.42133 187.404 2.784 187.404 3.2C187.404 3.44533 187.329 3.66933 187.18 3.872C187.041 4.07467 186.838 4.22933 186.572 4.336C186.54 4.272 186.524 4.17067 186.524 4.032C186.524 3.904 186.54 3.776 186.572 3.648C186.593 3.47733 186.604 3.35467 186.604 3.28C186.604 3.17333 186.588 3.08267 186.556 3.008C186.406 2.63467 186.001 2.448 185.34 2.448C185.158 2.448 184.945 2.464 184.7 2.496C184.134 2.57067 183.574 2.85333 183.02 3.344C182.465 3.824 182.012 4.42667 181.66 5.152C181.308 5.87733 181.132 6.61867 181.132 7.376C181.132 8.03733 181.238 8.66667 181.452 9.264C181.676 9.85067 181.996 10.3253 182.412 10.688C182.828 11.0507 183.324 11.232 183.9 11.232C184.646 11.232 185.265 11.1413 185.756 10.96C186.257 10.7787 186.748 10.5013 187.228 10.128C187.281 10.0853 187.34 10.064 187.404 10.064C187.521 10.064 187.601 10.1333 187.644 10.272C187.697 10.528 187.526 10.8053 187.132 11.104C186.737 11.4027 186.225 11.6587 185.596 11.872C184.966 12.0747 184.369 12.176 183.804 12.176ZM190.697 11.968C190.644 11.9787 190.585 11.776 190.521 11.36C190.468 10.944 190.393 10.2293 190.297 9.216C190.148 7.552 189.977 6.02667 189.785 4.64C189.604 3.25333 189.374 2.05333 189.097 1.04C189.076 0.954666 189.108 0.879999 189.193 0.815999C189.278 0.751999 189.396 0.719999 189.545 0.719999C189.62 0.719999 189.678 0.725333 189.721 0.735999C189.988 1.46133 190.174 2.10133 190.281 2.656C190.398 3.21067 190.505 3.89333 190.601 4.704L190.681 5.328C191.321 4.944 191.908 4.752 192.441 4.752C193.412 4.752 194.1 5.19467 194.505 6.08C194.921 6.95467 195.129 8.20267 195.129 9.824C195.129 10.4427 195.092 10.9653 195.017 11.392C194.942 11.808 194.852 12.016 194.745 12.016C194.606 12.016 194.452 11.9147 194.281 11.712V11.184L194.297 9.44C194.297 9.10933 194.286 8.69867 194.265 8.208C194.233 7.376 194.062 6.74667 193.753 6.32C193.454 5.89333 192.937 5.68 192.201 5.68C191.71 5.68 191.252 5.86133 190.825 6.224C190.825 6.62933 190.841 7.04533 190.873 7.472C190.916 7.89867 190.964 8.31467 191.017 8.72C191.092 9.28533 191.145 9.78667 191.177 10.224C191.22 10.6507 191.241 11.1253 191.241 11.648C191.177 11.776 191.102 11.8613 191.017 11.904C190.942 11.9467 190.836 11.968 190.697 11.968ZM200.643 12C199.533 12 198.568 11.808 197.747 11.424C196.936 11.0293 196.531 10.3413 196.531 9.36C196.531 9.008 196.637 8.66667 196.851 8.336C197.064 8.00533 197.379 7.73867 197.795 7.536C198.211 7.32267 198.717 7.216 199.315 7.216C199.773 7.216 200.163 7.23733 200.483 7.28C200.803 7.32267 201.171 7.44 201.587 7.632C202.003 7.824 202.435 8.128 202.883 8.544C202.712 7.808 202.456 7.16267 202.115 6.608C201.773 6.05333 201.389 5.62667 200.963 5.328C200.547 5.01867 200.136 4.864 199.731 4.864C199.539 4.864 199.357 4.90133 199.187 4.976C199.027 5.04 198.829 5.136 198.595 5.264C198.328 5.43467 198.131 5.52 198.003 5.52C197.949 5.52 197.901 5.504 197.859 5.472C197.827 5.42933 197.811 5.38133 197.811 5.328C197.811 4.90133 197.997 4.57067 198.371 4.336C198.755 4.10133 199.219 3.99467 199.763 4.016C200.509 4.05867 201.192 4.37867 201.811 4.976C202.429 5.56267 202.915 6.29333 203.267 7.168C203.629 8.04267 203.811 8.90133 203.811 9.744C203.811 9.88267 203.8 10.08 203.779 10.336L203.267 10.304C202.861 9.48267 202.339 8.90133 201.699 8.56C201.069 8.208 200.435 8.032 199.795 8.032C198.973 8.032 198.387 8.15467 198.035 8.4C197.683 8.64533 197.507 9.00267 197.507 9.472C197.507 9.96267 197.752 10.3573 198.243 10.656C198.733 10.9547 199.363 11.104 200.131 11.104C200.557 11.104 200.899 11.0827 201.155 11.04C201.411 10.9867 201.677 10.9173 201.955 10.832C202.179 10.7573 202.376 10.704 202.547 10.672C202.717 10.64 202.936 10.624 203.203 10.624C203.501 10.624 203.688 10.6453 203.763 10.688C203.848 10.7307 203.891 10.8267 203.891 10.976C203.891 11.0827 203.672 11.216 203.235 11.376C202.797 11.536 202.307 11.68 201.763 11.808C201.219 11.936 200.845 12 200.643 12ZM206.051 11.888C205.817 10.7253 205.635 9.34933 205.507 7.76C205.39 6.16 205.331 4.61333 205.331 3.12C205.331 2.37333 205.347 1.712 205.379 1.136C205.379 0.997333 205.486 0.927999 205.699 0.927999C205.87 0.927999 205.977 0.970666 206.019 1.056C206.073 1.14133 206.099 1.27467 206.099 1.456C206.099 3.184 206.131 4.66133 206.195 5.888C206.259 7.104 206.345 8.416 206.451 9.824C206.515 10.7307 206.558 11.344 206.579 11.664C206.59 11.8347 206.499 11.92 206.307 11.92C206.243 11.92 206.158 11.9093 206.051 11.888ZM208.739 11.888C208.504 10.7253 208.323 9.34933 208.195 7.76C208.077 6.16 208.019 4.61333 208.019 3.12C208.019 2.37333 208.035 1.712 208.067 1.136C208.067 0.997333 208.173 0.927999 208.387 0.927999C208.557 0.927999 208.664 0.970666 208.707 1.056C208.76 1.14133 208.787 1.27467 208.787 1.456C208.787 3.184 208.819 4.66133 208.883 5.888C208.947 7.104 209.032 8.416 209.139 9.824C209.203 10.7307 209.245 11.344 209.267 11.664C209.277 11.8347 209.187 11.92 208.995 11.92C208.931 11.92 208.845 11.9093 208.739 11.888ZM214.322 12C213.64 12 213.01 11.8667 212.434 11.6C211.858 11.3333 211.4 10.9547 211.058 10.464C210.717 9.97333 210.546 9.408 210.546 8.768C210.546 8.05333 210.68 7.38667 210.946 6.768C211.213 6.13867 211.602 5.63733 212.114 5.264C212.637 4.88 213.245 4.688 213.938 4.688C214.664 4.688 215.213 4.92267 215.586 5.392C215.96 5.85067 216.136 6.432 216.114 7.136C216.114 7.76533 215.864 8.24533 215.362 8.576C214.872 8.90667 214.242 9.072 213.474 9.072C213.357 9.072 213.181 9.06133 212.946 9.04C212.562 8.99733 212.29 8.93867 212.13 8.864C211.97 8.78933 211.89 8.64 211.89 8.416C211.89 8.34133 211.912 8.288 211.954 8.256C211.997 8.21333 212.082 8.192 212.21 8.192C212.349 8.192 212.594 8.224 212.946 8.288C213.288 8.352 213.592 8.384 213.858 8.384C214.84 8.384 215.33 7.95733 215.33 7.104C215.33 6.592 215.234 6.18667 215.042 5.888C214.861 5.58933 214.536 5.44 214.066 5.44C213.554 5.44 213.096 5.57867 212.69 5.856C212.285 6.12267 211.97 6.47467 211.746 6.912C211.533 7.34933 211.426 7.81333 211.426 8.304C211.426 9.14667 211.661 9.84 212.13 10.384C212.6 10.9173 213.325 11.184 214.306 11.184C214.424 11.184 214.621 11.1733 214.898 11.152C215.016 11.1413 215.16 11.1093 215.33 11.056C215.501 11.0027 215.624 10.9653 215.698 10.944C216.157 10.784 216.493 10.704 216.706 10.704C216.866 10.704 216.989 10.7467 217.074 10.832C216.808 11.2373 216.408 11.536 215.874 11.728C215.352 11.9093 214.834 12 214.322 12ZM219.238 12.064C219.089 12.1067 219.003 12.128 218.982 12.128C218.897 12.128 218.806 12.0853 218.71 12C218.358 11.4773 218.102 10.5653 217.942 9.264C217.793 7.96267 217.718 6.84267 217.718 5.904C217.718 5.75467 217.825 5.68 218.038 5.68C218.358 5.68 218.518 5.856 218.518 6.208C218.518 6.304 218.513 6.384 218.502 6.448C218.598 6.224 218.779 5.99467 219.046 5.76C219.313 5.52533 219.622 5.328 219.974 5.168C220.326 5.008 220.683 4.928 221.046 4.928C222.187 4.928 223.019 5.43467 223.542 6.448C224.065 7.45067 224.326 8.69867 224.326 10.192C224.326 10.704 224.273 11.1147 224.166 11.424C224.059 11.7227 223.915 11.872 223.734 11.872C223.542 11.872 223.446 11.8133 223.446 11.696C223.521 11.1307 223.558 10.576 223.558 10.032C223.558 8.656 223.318 7.616 222.838 6.912C222.358 6.19733 221.723 5.84 220.934 5.84C220.55 5.84 220.177 5.936 219.814 6.128C219.462 6.32 219.174 6.58667 218.95 6.928C218.737 7.26933 218.63 7.65867 218.63 8.096C218.63 8.58667 218.657 9.01333 218.71 9.376C218.763 9.73867 218.849 10.176 218.966 10.688C219.094 11.1893 219.185 11.648 219.238 12.064ZM228.297 19.808C227.401 19.808 226.649 19.552 226.041 19.04C225.443 18.5387 225.086 17.6907 224.969 16.496C224.958 16.3147 224.985 16.176 225.049 16.08C225.123 15.984 225.219 15.936 225.337 15.936C225.465 15.936 225.577 15.984 225.673 16.08C225.769 16.1867 225.811 16.3253 225.801 16.496C225.801 17.2 226.041 17.7547 226.521 18.16C227.011 18.576 227.635 18.784 228.393 18.784C228.83 18.784 229.214 18.624 229.545 18.304C229.886 17.984 230.147 17.536 230.329 16.96C230.51 16.3947 230.601 15.744 230.601 15.008C230.601 13.7173 230.617 12.464 230.649 11.248L230.665 10.432C230.249 10.8693 229.87 11.1893 229.529 11.392C229.198 11.5947 228.798 11.696 228.329 11.696C227.507 11.696 226.899 11.4773 226.505 11.04C226.121 10.592 225.929 9.90933 225.929 8.992C225.929 8.46933 226.067 7.92533 226.345 7.36C226.633 6.784 227.022 6.304 227.513 5.92C228.014 5.536 228.579 5.344 229.209 5.344C229.422 5.344 229.619 5.36533 229.801 5.408C230.483 5.55733 230.942 6.192 231.177 7.312C231.411 8.432 231.529 9.88267 231.529 11.664C231.529 12.1547 231.518 12.8053 231.497 13.616L231.481 15.136C231.481 15.744 231.385 16.4053 231.193 17.12C231.001 17.8453 230.665 18.4747 230.185 19.008C229.705 19.5413 229.075 19.808 228.297 19.808ZM228.089 10.64C228.878 10.64 229.475 10.4533 229.881 10.08C230.286 9.696 230.489 9.136 230.489 8.4C230.489 8.304 230.478 8.13867 230.457 7.904C230.403 7.41333 230.275 7.02933 230.073 6.752C229.881 6.464 229.577 6.32 229.161 6.32C228.723 6.32 228.323 6.47467 227.961 6.784C227.598 7.09333 227.315 7.47733 227.113 7.936C226.91 8.384 226.809 8.80533 226.809 9.2C226.809 9.59467 226.926 9.936 227.161 10.224C227.395 10.5013 227.705 10.64 228.089 10.64ZM236.588 12C235.905 12 235.276 11.8667 234.7 11.6C234.124 11.3333 233.665 10.9547 233.324 10.464C232.983 9.97333 232.812 9.408 232.812 8.768C232.812 8.05333 232.945 7.38667 233.212 6.768C233.479 6.13867 233.868 5.63733 234.38 5.264C234.903 4.88 235.511 4.688 236.204 4.688C236.929 4.688 237.479 4.92267 237.852 5.392C238.225 5.85067 238.401 6.432 238.38 7.136C238.38 7.76533 238.129 8.24533 237.628 8.576C237.137 8.90667 236.508 9.072 235.74 9.072C235.623 9.072 235.447 9.06133 235.212 9.04C234.828 8.99733 234.556 8.93867 234.396 8.864C234.236 8.78933 234.156 8.64 234.156 8.416C234.156 8.34133 234.177 8.288 234.22 8.256C234.263 8.21333 234.348 8.192 234.476 8.192C234.615 8.192 234.86 8.224 235.212 8.288C235.553 8.352 235.857 8.384 236.124 8.384C237.105 8.384 237.596 7.95733 237.596 7.104C237.596 6.592 237.5 6.18667 237.308 5.888C237.127 5.58933 236.801 5.44 236.332 5.44C235.82 5.44 235.361 5.57867 234.956 5.856C234.551 6.12267 234.236 6.47467 234.012 6.912C233.799 7.34933 233.692 7.81333 233.692 8.304C233.692 9.14667 233.927 9.84 234.396 10.384C234.865 10.9173 235.591 11.184 236.572 11.184C236.689 11.184 236.887 11.1733 237.164 11.152C237.281 11.1413 237.425 11.1093 237.596 11.056C237.767 11.0027 237.889 10.9653 237.964 10.944C238.423 10.784 238.759 10.704 238.972 10.704C239.132 10.704 239.255 10.7467 239.34 10.832C239.073 11.2373 238.673 11.536 238.14 11.728C237.617 11.9093 237.1 12 236.588 12ZM240.064 10.112C240.213 9.99467 240.357 9.936 240.496 9.936C240.624 9.936 240.746 9.97333 240.864 10.048C240.992 10.1227 241.12 10.2187 241.248 10.336C241.376 10.4427 241.477 10.5227 241.552 10.576C241.797 10.768 242.133 10.9173 242.56 11.024C242.986 11.1307 243.44 11.184 243.92 11.184C244.464 11.184 244.949 11.0827 245.376 10.88C245.813 10.6667 246.032 10.384 246.032 10.032C246.032 9.712 245.914 9.46133 245.68 9.28C245.445 9.088 245.162 8.94933 244.832 8.864C244.501 8.77867 244.064 8.69867 243.52 8.624C242.784 8.53867 242.197 8.432 241.76 8.304C241.333 8.176 240.992 7.968 240.736 7.68C240.48 7.38133 240.352 6.96533 240.352 6.432C240.352 5.856 240.624 5.42933 241.168 5.152C241.712 4.864 242.336 4.72 243.04 4.72C243.68 4.72 244.224 4.85867 244.672 5.136C245.13 5.40267 245.365 5.78667 245.376 6.288C245.397 6.576 245.354 6.80533 245.248 6.976C245.141 7.136 245.013 7.216 244.864 7.216C244.778 7.216 244.704 7.184 244.64 7.12C244.586 7.056 244.56 6.97067 244.56 6.864C244.56 6.69333 244.618 6.50667 244.736 6.304C244.682 6.048 244.506 5.856 244.208 5.728C243.92 5.6 243.573 5.536 243.168 5.536C242.57 5.536 242.096 5.648 241.744 5.872C241.392 6.08533 241.216 6.34133 241.216 6.64C241.216 6.96 241.344 7.20533 241.6 7.376C241.856 7.54667 242.165 7.66933 242.528 7.744C242.901 7.808 243.429 7.872 244.112 7.936C244.677 8.01067 245.136 8.10133 245.488 8.208C245.85 8.31467 246.154 8.52267 246.4 8.832C246.645 9.13067 246.768 9.56267 246.768 10.128C246.768 10.7147 246.496 11.1787 245.952 11.52C245.408 11.8507 244.757 12.016 244 12.016C243.029 12.016 242.16 11.8507 241.392 11.52C240.634 11.1893 240.192 10.72 240.064 10.112ZM197.559 27.392C198.434 27.392 199.111 27.2693 199.591 27.024C200.071 26.7787 200.311 26.4213 200.311 25.952C200.311 25.536 200.167 25.1787 199.879 24.88C199.591 24.5707 199.234 24.3093 198.807 24.096C198.38 23.8827 197.799 23.632 197.063 23.344C196.999 23.3227 196.844 23.264 196.599 23.168C195.596 22.7627 194.823 22.3573 194.279 21.952C193.746 21.5467 193.479 21.024 193.479 20.384C193.479 19.6693 193.762 19.1307 194.327 18.768C194.892 18.4053 195.618 18.224 196.503 18.224C197.154 18.224 197.751 18.3093 198.295 18.48C198.85 18.64 199.287 18.864 199.607 19.152C199.938 19.44 200.103 19.7653 200.103 20.128C199.975 20.192 199.852 20.224 199.735 20.224C199.607 20.224 199.474 20.1973 199.335 20.144C199.207 20.08 199.015 19.9787 198.759 19.84C198.343 19.616 197.954 19.44 197.591 19.312C197.228 19.1733 196.802 19.104 196.311 19.104C195.692 19.104 195.191 19.2107 194.807 19.424C194.423 19.6373 194.231 19.936 194.231 20.32C194.231 20.6187 194.359 20.8907 194.615 21.136C194.882 21.3813 195.212 21.6 195.607 21.792C196.012 21.9733 196.551 22.192 197.223 22.448C198.076 22.7787 198.78 23.088 199.335 23.376C199.89 23.664 200.359 24.032 200.743 24.48C201.138 24.9173 201.335 25.44 201.335 26.048C201.335 26.7627 200.994 27.3173 200.311 27.712C199.628 28.096 198.78 28.288 197.767 28.288C196.967 28.288 196.178 28.1707 195.399 27.936C194.62 27.7013 193.954 27.3547 193.399 26.896C192.844 26.4267 192.492 25.8667 192.343 25.216C192.343 24.928 192.423 24.6827 192.583 24.48C192.743 24.2667 192.94 24.16 193.175 24.16C193.175 24.8533 193.367 25.4453 193.751 25.936C194.146 26.416 194.674 26.7787 195.335 27.024C196.007 27.2693 196.748 27.392 197.559 27.392ZM205.921 28.016C205.291 28.016 204.721 27.8773 204.209 27.6C203.707 27.312 203.313 26.9173 203.025 26.416C202.747 25.904 202.609 25.3227 202.609 24.672C202.609 23.6053 202.998 22.8107 203.777 22.288C204.566 21.7653 205.531 21.504 206.673 21.504C207.195 21.504 207.681 21.632 208.129 21.888C208.587 22.144 208.955 22.512 209.233 22.992C209.51 23.472 209.649 24.0267 209.649 24.656C209.649 25.3387 209.473 25.936 209.121 26.448C208.769 26.9493 208.305 27.3387 207.729 27.616C207.163 27.8827 206.561 28.016 205.921 28.016ZM205.745 27.104C206.737 27.104 207.489 26.88 208.001 26.432C208.513 25.984 208.769 25.328 208.769 24.464C208.769 23.8773 208.566 23.3707 208.161 22.944C207.766 22.5173 207.211 22.304 206.497 22.304C206.017 22.304 205.531 22.3947 205.041 22.576C204.55 22.7573 204.145 23.0293 203.825 23.392C203.505 23.7547 203.345 24.192 203.345 24.704C203.345 25.1307 203.451 25.5307 203.665 25.904C203.878 26.2667 204.166 26.56 204.529 26.784C204.902 26.9973 205.307 27.104 205.745 27.104ZM211.317 27.888C211.082 26.7253 210.901 25.3493 210.773 23.76C210.656 22.16 210.597 20.6133 210.597 19.12C210.597 18.3733 210.613 17.712 210.645 17.136C210.645 16.9973 210.752 16.928 210.965 16.928C211.136 16.928 211.242 16.9707 211.285 17.056C211.338 17.1413 211.365 17.2747 211.365 17.456C211.365 19.184 211.397 20.6613 211.461 21.888C211.525 23.104 211.61 24.416 211.717 25.824C211.781 26.7307 211.824 27.344 211.845 27.664C211.856 27.8347 211.765 27.92 211.573 27.92C211.509 27.92 211.424 27.9093 211.317 27.888ZM215.876 28.016C215.567 28.016 215.162 27.5573 214.66 26.64C214.17 25.712 213.599 24.5387 212.948 23.12L212.484 22.128C212.484 22.0213 212.548 21.92 212.676 21.824C212.804 21.7173 212.996 21.6693 213.252 21.68C213.316 21.7973 213.519 22.2293 213.86 22.976C214.266 23.8507 214.607 24.5707 214.884 25.136C215.172 25.6907 215.519 26.288 215.924 26.928C216.106 26.2667 216.308 25.648 216.532 25.072C216.767 24.4853 217.114 23.6587 217.572 22.592L217.812 22.032C217.876 21.904 217.999 21.84 218.18 21.84C218.308 21.84 218.42 21.872 218.516 21.936C218.612 22 218.66 22.0907 218.66 22.208C218.66 22.3147 218.607 22.4267 218.5 22.544C218.426 22.6187 218.319 22.8373 218.18 23.2C218.042 23.552 217.898 23.9467 217.748 24.384C217.343 25.536 216.991 26.4373 216.692 27.088C216.394 27.728 216.122 28.0373 215.876 28.016ZM223.557 28C222.874 28 222.245 27.8667 221.669 27.6C221.093 27.3333 220.634 26.9547 220.293 26.464C219.951 25.9733 219.781 25.408 219.781 24.768C219.781 24.0533 219.914 23.3867 220.181 22.768C220.447 22.1387 220.837 21.6373 221.349 21.264C221.871 20.88 222.479 20.688 223.173 20.688C223.898 20.688 224.447 20.9227 224.821 21.392C225.194 21.8507 225.37 22.432 225.349 23.136C225.349 23.7653 225.098 24.2453 224.597 24.576C224.106 24.9067 223.477 25.072 222.709 25.072C222.591 25.072 222.415 25.0613 222.181 25.04C221.797 24.9973 221.525 24.9387 221.365 24.864C221.205 24.7893 221.125 24.64 221.125 24.416C221.125 24.3413 221.146 24.288 221.189 24.256C221.231 24.2133 221.317 24.192 221.445 24.192C221.583 24.192 221.829 24.224 222.181 24.288C222.522 24.352 222.826 24.384 223.093 24.384C224.074 24.384 224.565 23.9573 224.565 23.104C224.565 22.592 224.469 22.1867 224.277 21.888C224.095 21.5893 223.77 21.44 223.301 21.44C222.789 21.44 222.33 21.5787 221.925 21.856C221.519 22.1227 221.205 22.4747 220.981 22.912C220.767 23.3493 220.661 23.8133 220.661 24.304C220.661 25.1467 220.895 25.84 221.365 26.384C221.834 26.9173 222.559 27.184 223.541 27.184C223.658 27.184 223.855 27.1733 224.133 27.152C224.25 27.1413 224.394 27.1093 224.565 27.056C224.735 27.0027 224.858 26.9653 224.933 26.944C225.391 26.784 225.727 26.704 225.941 26.704C226.101 26.704 226.223 26.7467 226.309 26.832C226.042 27.2373 225.642 27.536 225.109 27.728C224.586 27.9093 224.069 28 223.557 28ZM229.689 27.984C229.187 27.984 228.75 27.8133 228.377 27.472C228.014 27.1307 227.737 26.688 227.545 26.144C227.363 25.6 227.273 25.0347 227.273 24.448C227.273 23.424 227.486 22.56 227.913 21.856C228.35 21.152 229.011 20.8 229.897 20.8C230.43 20.8 230.894 20.896 231.289 21.088C231.694 21.2693 232.222 21.5787 232.873 22.016L233.289 22.304C233.235 21.952 233.155 21.5467 233.049 21.088C232.942 20.6293 232.873 20.3147 232.841 20.144C232.659 19.312 232.526 18.6933 232.441 18.288C232.366 17.872 232.329 17.504 232.329 17.184C232.329 16.6187 232.489 16.336 232.809 16.336C232.926 16.592 233.065 17.1413 233.225 17.984C233.385 18.816 233.587 19.9573 233.833 21.408C234.089 22.944 234.313 24.1973 234.505 25.168C234.697 26.1387 234.857 26.7467 234.985 26.992C234.985 27.2373 234.803 27.36 234.441 27.36C234.163 27.36 233.971 27.2 233.865 26.88C233.769 26.56 233.71 26 233.689 25.2H233.561C233.113 26.0107 232.531 26.6773 231.817 27.2C231.102 27.7227 230.393 27.984 229.689 27.984ZM229.897 27.2C230.334 27.2 230.803 27.0187 231.305 26.656C231.817 26.2827 232.249 25.8347 232.601 25.312C232.953 24.7787 233.129 24.2987 233.129 23.872V23.392C232.03 22.24 231.017 21.664 230.089 21.664C229.438 21.664 228.937 21.904 228.585 22.384C228.233 22.8533 228.057 23.472 228.057 24.24L228.073 24.576C228.137 25.3867 228.318 26.0267 228.617 26.496C228.915 26.9653 229.342 27.2 229.897 27.2Z" fill="#1C2122"/>
<g clip-path="url(#clip0_3143_66)">
<path d="M43.174 10.8841C43.1466 10.9097 43.1143 10.9294 43.0791 10.9421C43.0438 10.9548 43.0064 10.9603 42.969 10.9581H36.514C36.452 10.9581 36.42 10.9891 36.42 11.0511V15.0021C36.42 15.0641 36.451 15.0951 36.514 15.0951H40.91C40.996 15.0951 41.064 15.1201 41.113 15.1691C41.163 15.2191 41.187 15.2871 41.187 15.3731V16.3561C41.1892 16.3934 41.1838 16.4307 41.1711 16.4658C41.1583 16.5009 41.1386 16.533 41.113 16.5601C41.0861 16.5857 41.0541 16.6055 41.0192 16.6183C40.9843 16.631 40.9471 16.6364 40.91 16.6341H36.514C36.452 16.6341 36.42 16.6651 36.42 16.7271V22.1251C36.4223 22.1624 36.417 22.1997 36.4042 22.2348C36.3915 22.2699 36.3717 22.302 36.346 22.3291C36.3191 22.3547 36.2871 22.3745 36.2522 22.3873C36.2173 22.4 36.1801 22.4054 36.143 22.4031H34.918C34.8806 22.4054 34.8431 22.4 34.8079 22.3872C34.7727 22.3745 34.7404 22.3548 34.713 22.3291C34.6877 22.3019 34.6681 22.2697 34.6556 22.2346C34.643 22.1996 34.6377 22.1623 34.64 22.1251V9.69515C34.64 9.60915 34.664 9.54115 34.713 9.49115C34.7405 9.46573 34.7728 9.44609 34.808 9.43338C34.8432 9.42067 34.8806 9.41515 34.918 9.41715H42.969C43.056 9.41715 43.123 9.44215 43.174 9.49115C43.1993 9.51851 43.2189 9.55066 43.2316 9.58569C43.2443 9.62072 43.2499 9.65793 43.248 9.69515V10.6781C43.2501 10.7157 43.2447 10.7533 43.232 10.7887C43.2193 10.8241 43.1995 10.8565 43.174 10.8841ZM50.168 13.0731C50.303 13.1471 50.354 13.2651 50.316 13.4261L50.056 14.6321C50.042 14.7561 49.982 14.8181 49.87 14.8181C49.82 14.8199 49.77 14.8135 49.722 14.7991C49.5181 14.7344 49.305 14.703 49.091 14.7061C48.9976 14.7042 48.9043 14.7105 48.812 14.7251C48.231 14.7501 47.751 14.9511 47.374 15.3291C46.997 15.7061 46.809 16.1981 46.809 16.8041V22.1281C46.8113 22.1654 46.806 22.2027 46.7932 22.2378C46.7805 22.2729 46.7607 22.305 46.735 22.3321C46.7078 22.3577 46.6757 22.3774 46.6406 22.3901C46.6056 22.4028 46.5683 22.4083 46.531 22.4061H45.306C45.2689 22.4084 45.2317 22.403 45.1968 22.3903C45.1619 22.3775 45.13 22.3577 45.103 22.3321C45.052 22.2831 45.029 22.2151 45.029 22.1281V13.2401C45.029 13.1541 45.052 13.0861 45.103 13.0371C45.13 13.0115 45.1619 12.9918 45.1968 12.979C45.2317 12.9663 45.2689 12.9609 45.306 12.9631H46.531C46.617 12.9631 46.685 12.9871 46.735 13.0371C46.785 13.0861 46.809 13.1541 46.809 13.2401V14.0941C46.809 14.1441 46.818 14.1721 46.837 14.1781C46.855 14.1841 46.876 14.1681 46.901 14.1311C47.458 13.2901 48.212 12.8701 49.165 12.8701C49.537 12.8701 49.871 12.9371 50.168 13.0731ZM53.701 21.8581C53.027 21.3941 52.554 20.7481 52.282 19.9191C52.059 19.2521 51.948 18.4971 51.948 17.6561C51.948 16.7781 52.052 16.0361 52.263 15.4291C52.534 14.6131 53.011 13.9731 53.691 13.5091C54.372 13.0451 55.181 12.8141 56.122 12.8141C57.013 12.8141 57.789 13.0451 58.451 13.5091C59.111 13.9731 59.585 14.6071 59.869 15.4101C60.092 16.0411 60.203 16.7831 60.203 17.6371C60.203 18.5021 60.092 19.2631 59.869 19.9181C59.598 20.7471 59.127 21.3941 58.46 21.8571C57.792 22.3211 57.006 22.5521 56.104 22.5521C55.176 22.5531 54.375 22.3221 53.701 21.8581ZM57.402 20.5961C57.773 20.3181 58.039 19.9251 58.2 19.4171C58.336 18.9471 58.404 18.3661 58.404 17.6741C58.404 16.9821 58.342 16.4061 58.218 15.9481C58.057 15.4411 57.791 15.0491 57.42 14.7701C57.049 14.4911 56.597 14.3521 56.066 14.3521C55.558 14.3521 55.121 14.4921 54.75 14.7701C54.379 15.0481 54.112 15.4411 53.951 15.9481C53.815 16.3811 53.748 16.9561 53.748 17.6741C53.748 18.3911 53.815 18.9731 53.951 19.4171C54.099 19.9251 54.363 20.3171 54.74 20.5961C55.117 20.8751 55.572 21.0131 56.103 21.0131C56.5704 21.0226 57.0275 20.8758 57.402 20.5961ZM69.609 13.7131C70.203 14.3011 70.5 15.0951 70.5 16.0971V22.1261C70.5021 22.1634 70.4966 22.2007 70.4839 22.2357C70.4712 22.2708 70.4515 22.3029 70.426 22.3301C70.3987 22.3558 70.3664 22.3755 70.3311 22.3882C70.2959 22.401 70.2584 22.4064 70.221 22.4041H68.997C68.9598 22.4065 68.9224 22.4011 68.8873 22.3884C68.8522 22.3756 68.8201 22.3558 68.793 22.3301C68.7673 22.303 68.7475 22.2709 68.7348 22.2358C68.7221 22.2007 68.7167 22.1634 68.719 22.1261V16.4501C68.719 15.8321 68.539 15.3311 68.181 14.9471C67.823 14.5641 67.346 14.3721 66.752 14.3721C66.221 14.3721 65.772 14.5301 65.407 14.8461C65.042 15.1611 64.828 15.5851 64.767 16.1171V22.1281C64.7691 22.1654 64.7636 22.2027 64.7509 22.2377C64.7382 22.2728 64.7185 22.3049 64.693 22.3321C64.6657 22.3577 64.6334 22.3775 64.5981 22.3902C64.5629 22.403 64.5254 22.4084 64.488 22.4061H63.263C63.2259 22.4084 63.1887 22.403 63.1538 22.3903C63.1189 22.3775 63.087 22.3577 63.06 22.3321C63.0343 22.305 63.0145 22.2729 63.0018 22.2378C62.9891 22.2027 62.9837 22.1654 62.986 22.1281V13.2401C62.986 13.1541 63.01 13.0861 63.06 13.0371C63.087 13.0115 63.1189 12.9918 63.1538 12.979C63.1887 12.9663 63.2259 12.9609 63.263 12.9631H64.488C64.575 12.9631 64.643 12.9871 64.693 13.0371C64.7184 13.0642 64.7381 13.0962 64.7508 13.1311C64.7635 13.166 64.769 13.2031 64.767 13.2401V13.7601C64.767 13.7971 64.779 13.8221 64.804 13.8341C64.827 13.8471 64.847 13.8411 64.859 13.8151C65.379 13.1601 66.158 12.8331 67.197 12.8331C68.211 12.8331 69.016 13.1261 69.609 13.7131ZM78.087 14.3531C78.0598 14.3787 78.0277 14.3984 77.9926 14.4111C77.9575 14.4238 77.9203 14.4293 77.883 14.4271H75.99C75.928 14.4271 75.898 14.4581 75.898 14.5201V19.3621C75.898 19.8941 76.011 20.2711 76.241 20.4941C76.47 20.7171 76.838 20.8281 77.345 20.8281H77.79C77.877 20.8281 77.945 20.8531 77.994 20.9021C78.0193 20.9295 78.0389 20.9617 78.0516 20.9967C78.0643 21.0317 78.0699 21.0689 78.068 21.1061V22.0711C78.068 22.2451 77.975 22.3431 77.79 22.3681L77.029 22.3871C76.077 22.3871 75.365 22.2201 74.896 21.8861C74.425 21.5521 74.191 20.9281 74.191 20.0121V14.5201C74.191 14.4581 74.16 14.4271 74.097 14.4271H73.077C73.0398 14.4294 73.0025 14.4239 72.9674 14.4112C72.9323 14.3985 72.9002 14.3787 72.873 14.3531C72.8473 14.326 72.8275 14.2939 72.8148 14.2588C72.8021 14.2237 72.7967 14.1864 72.799 14.1491V13.2401C72.799 13.1541 72.823 13.0861 72.873 13.0371C72.9002 13.0116 72.9323 12.9918 72.9674 12.9791C73.0025 12.9664 73.0398 12.9609 73.077 12.9631H74.097C74.159 12.9631 74.191 12.9321 74.191 12.8701V10.7921C74.191 10.7051 74.215 10.6381 74.265 10.5881C74.292 10.5625 74.3239 10.5428 74.3588 10.53C74.3937 10.5173 74.4309 10.5119 74.468 10.5141H75.618C75.705 10.5141 75.772 10.5381 75.823 10.5881C75.872 10.6381 75.897 10.7051 75.897 10.7921V12.8701C75.897 12.9321 75.927 12.9631 75.989 12.9631H77.882C77.968 12.9631 78.036 12.9871 78.086 13.0371C78.136 13.0861 78.16 13.1541 78.16 13.2401V14.1491C78.1627 14.1864 78.1576 14.2237 78.145 14.2589C78.1325 14.294 78.1127 14.3261 78.087 14.3531ZM86.714 19.8631C86.776 19.7521 86.844 19.6961 86.918 19.6961C86.98 19.6961 87.035 19.7151 87.084 19.7521L87.846 20.2161C87.945 20.2781 87.994 20.3591 87.994 20.4571L87.957 20.6051C87.6281 21.206 87.1358 21.7015 86.537 22.0341C85.926 22.3811 85.211 22.5541 84.394 22.5541C83.516 22.5541 82.774 22.3601 82.167 21.9701C81.562 21.5801 81.104 21.0211 80.795 20.2901C80.485 19.5361 80.331 18.6511 80.331 17.6381C80.331 16.7351 80.399 16.0491 80.535 15.5781C80.758 14.7241 81.202 14.0511 81.87 13.5561C82.538 13.0621 83.349 12.8151 84.301 12.8151C85.476 12.8151 86.372 13.1211 86.991 13.7331C87.609 14.3451 88.011 15.2331 88.196 16.3951C88.258 16.8531 88.301 17.4101 88.327 18.0651C88.327 18.2511 88.233 18.3431 88.048 18.3431H82.187C82.125 18.3431 82.093 18.3731 82.093 18.4361C82.118 18.9061 82.161 19.2401 82.224 19.4371C82.359 19.9321 82.632 20.3221 83.04 20.6061C83.448 20.8911 83.954 21.0331 84.561 21.0331C85.563 21.0201 86.281 20.6301 86.714 19.8631ZM82.976 14.7431C82.635 15.0031 82.404 15.3621 82.28 15.8191C82.1826 16.1574 82.1269 16.5064 82.114 16.8581C82.114 16.9201 82.144 16.9511 82.206 16.9511H86.418C86.48 16.9511 86.511 16.9201 86.511 16.8581C86.486 16.4501 86.449 16.1471 86.4 15.9491C86.292 15.492 86.0344 15.0841 85.668 14.7901C85.303 14.4991 84.848 14.3531 84.304 14.3531C83.76 14.3531 83.315 14.4831 82.976 14.7431ZM97.658 13.7131C98.252 14.3011 98.549 15.0951 98.549 16.0971V22.1261C98.5513 22.1634 98.546 22.2007 98.5332 22.2358C98.5205 22.2709 98.5007 22.303 98.475 22.3301C98.4481 22.3557 98.4161 22.3755 98.3812 22.3883C98.3463 22.401 98.3091 22.4064 98.272 22.4041H97.047C97.0098 22.4064 96.9725 22.4009 96.9374 22.3882C96.9023 22.3755 96.8702 22.3557 96.843 22.3301C96.8173 22.303 96.7975 22.2709 96.7848 22.2358C96.7721 22.2007 96.7667 22.1634 96.769 22.1261V16.4501C96.769 15.8321 96.589 15.3311 96.231 14.9471C95.872 14.5641 95.396 14.3721 94.802 14.3721C94.27 14.3721 93.823 14.5301 93.457 14.8461C93.091 15.1621 92.879 15.5851 92.816 16.1171V22.1281C92.8183 22.1654 92.813 22.2027 92.8002 22.2378C92.7875 22.2729 92.7677 22.305 92.742 22.3321C92.7151 22.3577 92.6831 22.3775 92.6482 22.3903C92.6133 22.403 92.5761 22.4084 92.539 22.4061H91.314C91.2768 22.4085 91.2394 22.4031 91.2043 22.3904C91.1692 22.3776 91.1371 22.3578 91.11 22.3321C91.0843 22.305 91.0645 22.2729 91.0518 22.2378C91.0391 22.2027 91.0337 22.1654 91.036 22.1281V13.2401C91.036 13.1541 91.06 13.0861 91.11 13.0371C91.1371 13.0115 91.1692 12.9917 91.2043 12.9789C91.2394 12.9662 91.2768 12.9608 91.314 12.9631H92.539C92.625 12.9631 92.693 12.9871 92.742 13.0371C92.792 13.0861 92.816 13.1541 92.816 13.2401V13.7601C92.816 13.7971 92.829 13.8221 92.853 13.8341C92.878 13.8471 92.896 13.8411 92.91 13.8151C93.43 13.1601 94.209 12.8331 95.247 12.8331C96.262 12.8331 97.065 13.1261 97.658 13.7131ZM107.381 9.49315C107.408 9.46774 107.44 9.44809 107.475 9.43537C107.51 9.42266 107.547 9.41714 107.584 9.41915H108.809C108.846 9.41729 108.883 9.42287 108.918 9.43558C108.954 9.44829 108.986 9.46786 109.013 9.49315C109.063 9.54315 109.087 9.61115 109.087 9.69715V22.1271C109.089 22.1644 109.084 22.2017 109.071 22.2368C109.059 22.2719 109.039 22.304 109.013 22.3311C108.986 22.3567 108.954 22.3764 108.919 22.3891C108.884 22.4018 108.846 22.4073 108.809 22.4051H107.584C107.547 22.4074 107.51 22.402 107.475 22.3893C107.44 22.3765 107.408 22.3567 107.381 22.3311C107.33 22.2821 107.307 22.2141 107.307 22.1271V21.6451C107.307 21.6081 107.293 21.5831 107.27 21.5711C107.245 21.5591 107.219 21.5651 107.196 21.5901C106.923 21.9001 106.604 22.1381 106.24 22.3051C105.876 22.4711 105.476 22.5551 105.044 22.5551C104.153 22.5551 103.414 22.3351 102.827 21.8971C102.239 21.4581 101.809 20.8361 101.538 20.0321C101.315 19.4141 101.204 18.6231 101.204 17.6581C101.204 16.7551 101.296 16.0071 101.481 15.4131C101.741 14.5971 102.17 13.9601 102.77 13.5021C103.37 13.0451 104.127 12.8161 105.043 12.8161C105.476 12.8161 105.875 12.8961 106.239 13.0571C106.603 13.2171 106.922 13.4531 107.195 13.7611C107.218 13.7861 107.244 13.7951 107.269 13.7891C107.292 13.7831 107.306 13.7611 107.306 13.7241V9.69915C107.307 9.61115 107.33 9.54215 107.381 9.49315ZM107.287 17.6741C107.287 16.6591 107.127 15.8681 106.805 15.2991C106.447 14.6681 105.921 14.3531 105.229 14.3531C104.511 14.3531 103.961 14.6501 103.578 15.2441C103.182 15.8631 102.984 16.6791 102.984 17.6931C102.984 18.6451 103.139 19.4121 103.448 19.9931C103.806 20.6741 104.4 21.0141 105.229 21.0141C105.934 21.0141 106.471 20.6801 106.842 20.0121C107.139 19.4671 107.287 18.6881 107.287 17.6741ZM116.656 22.3311C116.63 22.304 116.611 22.2719 116.598 22.2368C116.585 22.2017 116.58 22.1644 116.582 22.1271V9.69715C116.582 9.61115 116.606 9.54315 116.656 9.49315C116.683 9.46774 116.715 9.44809 116.75 9.43537C116.785 9.42266 116.822 9.41714 116.859 9.41915H118.103C118.251 9.41915 118.363 9.48115 118.437 9.60515L121.553 14.5771C121.59 14.6511 121.627 14.6511 121.664 14.5771L124.8 9.60515C124.833 9.54637 124.882 9.4979 124.941 9.46507C125 9.43225 125.067 9.41635 125.134 9.41915H126.376C126.413 9.41729 126.45 9.42287 126.485 9.43558C126.521 9.44829 126.553 9.46786 126.58 9.49315C126.63 9.54315 126.654 9.61115 126.654 9.69715V22.1271C126.656 22.1644 126.651 22.2017 126.638 22.2368C126.626 22.2719 126.606 22.304 126.58 22.3311C126.553 22.3567 126.521 22.3764 126.486 22.3891C126.451 22.4018 126.413 22.4073 126.376 22.4051H125.151C125.114 22.4074 125.077 22.402 125.042 22.3893C125.007 22.3765 124.975 22.3567 124.948 22.3311C124.897 22.2821 124.874 22.2141 124.874 22.1271V12.7031C124.874 12.6531 124.86 12.6261 124.837 12.6191C124.812 12.6131 124.786 12.6291 124.763 12.6661L122.24 16.7841C122.207 16.843 122.158 16.8915 122.099 16.9244C122.04 16.9572 121.973 16.9731 121.906 16.9701H121.312C121.245 16.9731 121.178 16.9572 121.119 16.9244C121.06 16.8915 121.011 16.843 120.978 16.7841L118.474 12.6661C118.449 12.6291 118.423 12.6131 118.4 12.6191C118.375 12.6261 118.363 12.6531 118.363 12.7031V22.1271C118.365 22.1644 118.36 22.2017 118.347 22.2367C118.334 22.2718 118.314 22.3039 118.289 22.3311C118.262 22.3567 118.229 22.3764 118.194 22.3891C118.159 22.4018 118.121 22.4073 118.084 22.4051H116.859C116.822 22.4072 116.785 22.4016 116.75 22.3889C116.715 22.3762 116.683 22.3565 116.656 22.3311ZM136.061 19.8631C136.123 19.7521 136.192 19.6961 136.266 19.6961C136.326 19.6958 136.384 19.7155 136.432 19.7521L137.193 20.2161C137.292 20.2781 137.341 20.3591 137.341 20.4571L137.304 20.6051C136.975 21.2057 136.483 21.7011 135.885 22.0341C135.273 22.3811 134.559 22.5541 133.742 22.5541C132.863 22.5541 132.121 22.3601 131.515 21.9701C130.909 21.5801 130.451 21.0211 130.142 20.2901C129.833 19.5361 129.679 18.6511 129.679 17.6381C129.679 16.7351 129.746 16.0491 129.882 15.5781C130.105 14.7241 130.55 14.0511 131.218 13.5561C131.886 13.0621 132.697 12.8151 133.648 12.8151C134.824 12.8151 135.72 13.1211 136.339 13.7331C136.956 14.3451 137.359 15.2331 137.544 16.3951C137.614 16.9495 137.657 17.5067 137.674 18.0651C137.674 18.2511 137.581 18.3431 137.396 18.3431H131.534C131.472 18.3431 131.441 18.3731 131.441 18.4361C131.466 18.9061 131.509 19.2401 131.571 19.4371C131.707 19.9321 131.979 20.3221 132.387 20.6061C132.795 20.8911 133.302 21.0331 133.908 21.0331C134.91 21.0201 135.628 20.6301 136.061 19.8631ZM132.322 14.7431C131.982 15.0031 131.75 15.3621 131.627 15.8191C131.529 16.1574 131.473 16.5063 131.46 16.8581C131.46 16.9201 131.49 16.9511 131.553 16.9511H135.764C135.826 16.9511 135.858 16.9201 135.858 16.8581C135.833 16.4501 135.796 16.1471 135.747 15.9491C135.638 15.4921 135.38 15.0843 135.014 14.7901C134.65 14.4991 134.195 14.3531 133.65 14.3531C133.105 14.3531 132.662 14.4831 132.322 14.7431ZM147.006 13.7131C147.6 14.3011 147.897 15.0951 147.897 16.0971V22.1261C147.899 22.1634 147.894 22.2007 147.881 22.2358C147.869 22.2709 147.849 22.303 147.823 22.3301C147.796 22.3557 147.764 22.3755 147.729 22.3883C147.694 22.401 147.657 22.4064 147.62 22.4041H146.395C146.358 22.4064 146.32 22.4009 146.285 22.3882C146.25 22.3755 146.218 22.3557 146.191 22.3301C146.165 22.303 146.146 22.2709 146.133 22.2358C146.12 22.2007 146.115 22.1634 146.117 22.1261V16.4501C146.117 15.8321 145.937 15.3311 145.579 14.9471C145.22 14.5641 144.744 14.3721 144.15 14.3721C143.618 14.3721 143.171 14.5301 142.805 14.8461C142.439 15.1621 142.227 15.5851 142.164 16.1171V22.1281C142.166 22.1654 142.161 22.2027 142.148 22.2378C142.136 22.2729 142.116 22.305 142.09 22.3321C142.063 22.3577 142.031 22.3775 141.996 22.3903C141.961 22.403 141.924 22.4084 141.887 22.4061H140.662C140.625 22.4085 140.587 22.4031 140.552 22.3904C140.517 22.3776 140.485 22.3578 140.458 22.3321C140.432 22.305 140.413 22.2729 140.4 22.2378C140.387 22.2027 140.382 22.1654 140.384 22.1281V13.2401C140.384 13.1541 140.408 13.0861 140.458 13.0371C140.485 13.0115 140.517 12.9917 140.552 12.9789C140.587 12.9662 140.625 12.9608 140.662 12.9631H141.887C141.973 12.9631 142.041 12.9871 142.09 13.0371C142.14 13.0861 142.164 13.1541 142.164 13.2401V13.7601C142.164 13.7971 142.177 13.8221 142.201 13.8341C142.226 13.8471 142.244 13.8411 142.258 13.8151C142.778 13.1601 143.557 12.8331 144.595 12.8331C145.609 12.8331 146.413 13.1261 147.006 13.7131ZM155.484 14.3531C155.457 14.3788 155.425 14.3986 155.39 14.4114C155.355 14.4241 155.317 14.4295 155.28 14.4271H153.388C153.326 14.4271 153.294 14.4581 153.294 14.5201V19.3621C153.294 19.8941 153.409 20.2711 153.638 20.4941C153.867 20.7171 154.234 20.8281 154.742 20.8281H155.187C155.224 20.8263 155.261 20.8319 155.296 20.8446C155.332 20.8573 155.364 20.8769 155.391 20.9021C155.441 20.9521 155.465 21.0201 155.465 21.1061V22.0711C155.465 22.2451 155.372 22.3431 155.187 22.3681L154.426 22.3871C153.474 22.3871 152.763 22.2201 152.292 21.8861C151.822 21.5521 151.587 20.9281 151.587 20.0121V14.5201C151.587 14.4581 151.557 14.4271 151.495 14.4271H150.474C150.437 14.4295 150.399 14.4241 150.364 14.4114C150.329 14.3986 150.297 14.3788 150.27 14.3531C150.244 14.326 150.225 14.2939 150.212 14.2588C150.199 14.2237 150.194 14.1864 150.196 14.1491V13.2401C150.196 13.1541 150.22 13.0861 150.27 13.0371C150.297 13.0115 150.329 12.9917 150.364 12.9789C150.399 12.9662 150.437 12.9608 150.474 12.9631H151.495C151.557 12.9631 151.587 12.9321 151.587 12.8701V10.7921C151.587 10.7051 151.612 10.6381 151.661 10.5881C151.688 10.5625 151.721 10.5428 151.756 10.5301C151.791 10.5173 151.829 10.5119 151.866 10.5141H153.016C153.102 10.5141 153.17 10.5381 153.219 10.5881C153.269 10.6381 153.293 10.7051 153.293 10.7921V12.8701C153.293 12.9321 153.324 12.9631 153.387 12.9631H155.279C155.366 12.9631 155.434 12.9871 155.483 13.0371C155.508 13.0642 155.528 13.0962 155.541 13.1311C155.554 13.166 155.559 13.2031 155.557 13.2401V14.1491C155.56 14.1864 155.555 14.2237 155.542 14.2589C155.529 14.294 155.51 14.3261 155.484 14.3531ZM159.463 21.8581C158.789 21.3941 158.317 20.7481 158.045 19.9191C157.822 19.2521 157.711 18.4971 157.711 17.6561C157.711 16.7781 157.815 16.0361 158.025 15.4291C158.296 14.6131 158.773 13.9731 159.454 13.5091C160.135 13.0451 160.944 12.8141 161.885 12.8141C162.776 12.8141 163.551 13.0451 164.213 13.5091C164.874 13.9731 165.348 14.6071 165.632 15.4101C165.855 16.0411 165.966 16.7831 165.966 17.6371C165.966 18.5021 165.855 19.2631 165.632 19.9181C165.36 20.7471 164.89 21.3941 164.223 21.8571C163.555 22.3211 162.769 22.5521 161.866 22.5521C160.938 22.5531 160.137 22.3221 159.463 21.8581ZM163.164 20.5961C163.535 20.3181 163.801 19.9251 163.963 19.4171C164.098 18.9471 164.166 18.3661 164.166 17.6741C164.166 16.9821 164.104 16.4061 163.98 15.9481C163.82 15.4411 163.554 15.0491 163.183 14.7701C162.812 14.4911 162.36 14.3521 161.828 14.3521C161.321 14.3521 160.883 14.4921 160.512 14.7701C160.141 15.0481 159.875 15.4411 159.714 15.9481C159.578 16.3811 159.51 16.9561 159.51 17.6741C159.51 18.3911 159.578 18.9731 159.714 19.4171C159.862 19.9251 160.125 20.3171 160.502 20.5961C160.879 20.8751 161.334 21.0131 161.865 21.0131C162.332 21.0226 162.789 20.8758 163.164 20.5961ZM173.888 13.0731C174.024 13.1471 174.074 13.2651 174.036 13.4261L173.776 14.6321C173.763 14.7561 173.702 14.8181 173.59 14.8181C173.54 14.8199 173.49 14.8135 173.442 14.7991C173.238 14.7344 173.025 14.703 172.811 14.7061C172.687 14.7061 172.595 14.7131 172.533 14.7251C171.951 14.7501 171.472 14.9511 171.095 15.3291C170.718 15.7061 170.529 16.1981 170.529 16.8041V22.1281C170.531 22.1654 170.526 22.2027 170.513 22.2378C170.501 22.2729 170.481 22.305 170.455 22.3321C170.428 22.3577 170.396 22.3775 170.361 22.3903C170.326 22.403 170.289 22.4084 170.252 22.4061H169.027C168.99 22.4085 168.952 22.4031 168.917 22.3904C168.882 22.3776 168.85 22.3578 168.823 22.3321C168.797 22.305 168.778 22.2729 168.765 22.2378C168.752 22.2027 168.747 22.1654 168.749 22.1281V13.2401C168.749 13.1541 168.773 13.0861 168.823 13.0371C168.85 13.0115 168.882 12.9917 168.917 12.9789C168.952 12.9662 168.99 12.9608 169.027 12.9631H170.252C170.338 12.9631 170.406 12.9871 170.455 13.0371C170.505 13.0861 170.529 13.1541 170.529 13.2401V14.0941C170.529 14.1441 170.539 14.1721 170.557 14.1781C170.575 14.1841 170.597 14.1681 170.622 14.1311C171.179 13.2901 171.933 12.8701 172.885 12.8701C173.257 12.8701 173.591 12.9371 173.888 13.0731Z" fill="#1C2122"/>
<path d="M24.762 19.1671C24.6562 19.1671 24.5517 19.145 24.455 19.1021L18.017 16.2191C17.885 16.1597 17.7729 16.0635 17.6943 15.942C17.6157 15.8205 17.5739 15.6788 17.5739 15.5341C17.5739 15.3893 17.6157 15.2477 17.6943 15.1261C17.7729 15.0046 17.885 14.9084 18.017 14.8491L24.455 11.9761C24.6367 11.8954 24.843 11.89 25.0287 11.961C25.2144 12.032 25.3645 12.1737 25.446 12.3551C25.5266 12.5369 25.5319 12.7433 25.4607 12.929C25.3894 13.1148 25.2475 13.2647 25.066 13.3461L20.161 15.5351L25.067 17.7321C25.2239 17.802 25.352 17.9237 25.4299 18.0767C25.5079 18.2298 25.5309 18.405 25.4952 18.573C25.4595 18.741 25.3672 18.8917 25.2337 18.9998C25.1003 19.1079 24.9338 19.167 24.762 19.1671Z" fill="#67BECE"/>
<path d="M15.988 29.6261C8.91001 29.6261 2.72201 24.8481 0.943009 18.0061C0.892883 17.8137 0.921246 17.6092 1.02186 17.4377C1.12247 17.2662 1.28709 17.1417 1.47951 17.0916C1.67192 17.0415 1.87637 17.0698 2.04787 17.1704C2.21937 17.2711 2.34388 17.4357 2.39401 17.6281C3.1788 20.6356 4.93909 23.2977 7.39911 25.1975C9.85912 27.0972 12.8798 28.1272 15.988 28.1261C16.1869 28.1261 16.3777 28.2051 16.5183 28.3458C16.659 28.4864 16.738 28.6772 16.738 28.8761C16.738 29.075 16.659 29.2658 16.5183 29.4064C16.3777 29.5471 16.1869 29.6261 15.988 29.6261Z" fill="#3F54A3"/>
<path d="M13.404 23.3981C13.2051 23.3981 13.0143 23.3191 12.8737 23.1784C12.733 23.0378 12.654 22.847 12.654 22.6481V8.39111C12.654 8.1922 12.733 8.00144 12.8737 7.86078C13.0143 7.72013 13.2051 7.64111 13.404 7.64111C13.6029 7.64111 13.7937 7.72013 13.9343 7.86078C14.075 8.00144 14.154 8.1922 14.154 8.39111V22.6481C14.154 22.847 14.075 23.0378 13.9343 23.1784C13.7937 23.3191 13.6029 23.3981 13.404 23.3981Z" fill="#67BECE"/>
<path d="M41.71 31.7982C41.6115 31.7984 41.5139 31.7791 41.4229 31.7413C41.332 31.7036 41.2494 31.6481 41.18 31.5782L37.907 28.3042L34.634 31.5772C34.5643 31.6469 34.4816 31.7021 34.3906 31.7398C34.2996 31.7775 34.202 31.7969 34.1035 31.7969C34.005 31.7969 33.9074 31.7775 33.8164 31.7398C33.7254 31.7021 33.6427 31.6469 33.573 31.5772C33.5033 31.5075 33.4481 31.4248 33.4104 31.3338C33.3727 31.2428 33.3533 31.1452 33.3533 31.0467C33.3533 30.9482 33.3727 30.8506 33.4104 30.7596C33.4481 30.6686 33.5033 30.5859 33.573 30.5162L37.377 26.7122C37.4466 26.6425 37.5292 26.5873 37.6201 26.5495C37.7111 26.5118 37.8086 26.4924 37.907 26.4924C38.0055 26.4924 38.1029 26.5118 38.1939 26.5495C38.2848 26.5873 38.3674 26.6425 38.437 26.7122L42.241 30.5172C42.3462 30.6221 42.4178 30.7558 42.4469 30.9015C42.4759 31.0472 42.4611 31.1982 42.4042 31.3354C42.3473 31.4726 42.251 31.5898 42.1274 31.6722C42.0038 31.7546 41.8585 31.7985 41.71 31.7982Z" fill="#F9C7C5"/>
<path d="M49.316 31.7982C49.2175 31.7984 49.12 31.779 49.029 31.7412C48.938 31.7035 48.8555 31.6481 48.786 31.5782L45.513 28.3042L42.241 31.5772C42.1713 31.6469 42.0886 31.7022 41.9976 31.7399C41.9066 31.7776 41.809 31.797 41.7105 31.797C41.612 31.797 41.5144 31.7776 41.4234 31.7399C41.3324 31.7022 41.2497 31.6469 41.18 31.5772C41.1103 31.5076 41.0551 31.4249 41.0174 31.3338C40.9797 31.2428 40.9603 31.1453 40.9603 31.0467C40.9603 30.9482 40.9797 30.8507 41.0174 30.7596C41.0551 30.6686 41.1103 30.5859 41.18 30.5162L44.983 26.7122C45.1265 26.5769 45.3163 26.5015 45.5135 26.5015C45.7108 26.5015 45.9005 26.5769 46.044 26.7122L49.848 30.5172C49.9532 30.6222 50.0249 30.756 50.0539 30.9018C50.0829 31.0476 50.068 31.1986 50.011 31.3359C49.954 31.4731 49.8575 31.5904 49.7338 31.6727C49.61 31.755 49.4646 31.7987 49.316 31.7982Z" fill="#F9C7C5"/>
<path d="M56.924 31.7983C56.8253 31.7985 56.7276 31.7792 56.6365 31.7415C56.5453 31.7037 56.4626 31.6482 56.393 31.5783L53.121 28.3043L49.848 31.5773C49.7783 31.6469 49.6956 31.7022 49.6046 31.7399C49.5136 31.7776 49.416 31.797 49.3175 31.797C49.219 31.797 49.1214 31.7776 49.0304 31.7399C48.9394 31.7022 48.8567 31.6469 48.787 31.5773C48.7173 31.5076 48.6621 31.4249 48.6244 31.3339C48.5867 31.2428 48.5673 31.1453 48.5673 31.0468C48.5673 30.9482 48.5867 30.8507 48.6244 30.7597C48.6621 30.6686 48.7173 30.5859 48.787 30.5163L52.591 26.7123C52.7316 26.5718 52.9222 26.4929 53.121 26.4929C53.3197 26.4929 53.5104 26.5718 53.651 26.7123L57.454 30.5173C57.5591 30.6221 57.6307 30.7558 57.6598 30.9013C57.6889 31.0469 57.6741 31.1978 57.6174 31.335C57.5606 31.4722 57.4644 31.5894 57.341 31.6719C57.2176 31.7543 57.0724 31.7983 56.924 31.7983Z" fill="#F9C7C5"/>
<path d="M64.529 31.7982C64.4307 31.7983 64.3333 31.779 64.2425 31.7412C64.1517 31.7034 64.0693 31.648 64 31.5782L60.727 28.3042L57.454 31.5772C57.3844 31.6469 57.3016 31.7022 57.2106 31.7399C57.1196 31.7776 57.022 31.797 56.9235 31.797C56.825 31.797 56.7274 31.7776 56.6364 31.7399C56.5454 31.7022 56.4627 31.6469 56.393 31.5772C56.3234 31.5076 56.2681 31.4249 56.2304 31.3338C56.1927 31.2428 56.1733 31.1453 56.1733 31.0467C56.1733 30.9482 56.1927 30.8507 56.2304 30.7596C56.2681 30.6686 56.3234 30.5859 56.393 30.5162L60.196 26.7122C60.3395 26.5769 60.5293 26.5015 60.7265 26.5015C60.9238 26.5015 61.1136 26.5769 61.257 26.7122L65.062 30.5172C65.1673 30.6223 65.239 30.7562 65.268 30.902C65.297 31.0479 65.2819 31.1991 65.2248 31.3364C65.1677 31.4737 65.071 31.5909 64.9472 31.6731C64.8233 31.7553 64.6777 31.7989 64.529 31.7982Z" fill="#F9C7C5"/>
<path d="M72.137 31.7982C72.0385 31.7984 71.941 31.779 71.85 31.7412C71.7591 31.7035 71.6765 31.6481 71.607 31.5782L68.333 28.3042L65.062 31.5772C64.9923 31.6469 64.9096 31.7022 64.8186 31.7399C64.7276 31.7776 64.63 31.797 64.5315 31.797C64.433 31.797 64.3354 31.7776 64.2444 31.7399C64.1534 31.7022 64.0707 31.6469 64.001 31.5772C63.9314 31.5076 63.8761 31.4249 63.8384 31.3338C63.8007 31.2428 63.7813 31.1453 63.7813 31.0467C63.7813 30.9482 63.8007 30.8507 63.8384 30.7596C63.8761 30.6686 63.9314 30.5859 64.001 30.5162L67.804 26.7122C67.9475 26.5769 68.1373 26.5015 68.3345 26.5015C68.5318 26.5015 68.7216 26.5769 68.865 26.7122L72.669 30.5172C72.7742 30.6222 72.8459 30.756 72.8749 30.9018C72.9039 31.0476 72.889 31.1986 72.832 31.3359C72.775 31.4731 72.6785 31.5904 72.5548 31.6727C72.431 31.755 72.2856 31.7987 72.137 31.7982Z" fill="#F9C7C5"/>
<path d="M79.743 31.7982C79.6445 31.7985 79.5469 31.7792 79.4559 31.7414C79.365 31.7036 79.2824 31.6482 79.213 31.5782L75.94 28.3042L72.668 31.5772C72.5983 31.6469 72.5156 31.7022 72.4246 31.7399C72.3336 31.7776 72.236 31.797 72.1375 31.797C72.039 31.797 71.9414 31.7776 71.8504 31.7399C71.7594 31.7022 71.6767 31.6469 71.607 31.5772C71.5373 31.5076 71.4821 31.4249 71.4444 31.3338C71.4067 31.2428 71.3873 31.1453 71.3873 31.0467C71.3873 30.9482 71.4067 30.8507 71.4444 30.7596C71.4821 30.6686 71.5373 30.5859 71.607 30.5162L75.41 26.7122C75.5535 26.5769 75.7433 26.5015 75.9405 26.5015C76.1378 26.5015 76.3275 26.5769 76.471 26.7122L80.275 30.5172C80.3802 30.6222 80.4519 30.756 80.4809 30.9018C80.5099 31.0476 80.495 31.1986 80.438 31.3359C80.381 31.4731 80.2845 31.5904 80.1608 31.6727C80.037 31.755 79.8916 31.7987 79.743 31.7982Z" fill="#F9C7C5"/>
<path d="M87.35 31.7982C87.2515 31.7984 87.154 31.779 87.063 31.7412C86.972 31.7035 86.8894 31.6481 86.82 31.5782L83.547 28.3042L80.275 31.5772C80.2053 31.6469 80.1226 31.7022 80.0316 31.7399C79.9406 31.7776 79.843 31.797 79.7445 31.797C79.646 31.797 79.5484 31.7776 79.4574 31.7399C79.3664 31.7022 79.2837 31.6469 79.214 31.5772C79.1443 31.5076 79.0891 31.4249 79.0514 31.3338C79.0137 31.2428 78.9943 31.1453 78.9943 31.0467C78.9943 30.9482 79.0137 30.8507 79.0514 30.7596C79.0891 30.6686 79.1443 30.5859 79.214 30.5162L83.017 26.7122C83.1605 26.5769 83.3503 26.5015 83.5475 26.5015C83.7447 26.5015 83.9345 26.5769 84.078 26.7122L87.882 30.5172C87.9872 30.6222 88.0589 30.756 88.0879 30.9018C88.1169 31.0476 88.102 31.1986 88.045 31.3359C87.988 31.4731 87.8915 31.5904 87.7678 31.6727C87.644 31.755 87.4986 31.7987 87.35 31.7982Z" fill="#F9C7C5"/>
<path d="M94.957 31.7983C94.8584 31.7985 94.7606 31.7792 94.6695 31.7415C94.5783 31.7037 94.4956 31.6482 94.426 31.5783L91.154 28.3043L87.881 31.5773C87.8114 31.6469 87.7286 31.7022 87.6376 31.7399C87.5466 31.7776 87.449 31.797 87.3505 31.797C87.252 31.797 87.1544 31.7776 87.0634 31.7399C86.9724 31.7022 86.8897 31.6469 86.82 31.5773C86.7504 31.5076 86.6951 31.4249 86.6574 31.3339C86.6197 31.2428 86.6003 31.1453 86.6003 31.0468C86.6003 30.9482 86.6197 30.8507 86.6574 30.7597C86.6951 30.6686 86.7504 30.5859 86.82 30.5163L90.624 26.7123C90.7646 26.5718 90.9553 26.4929 91.154 26.4929C91.3528 26.4929 91.5434 26.5718 91.684 26.7123L95.487 30.5173C95.5921 30.6221 95.6638 30.7558 95.6928 30.9013C95.7219 31.0469 95.7071 31.1978 95.6504 31.335C95.5936 31.4722 95.4975 31.5894 95.374 31.6719C95.2506 31.7543 95.1055 31.7983 94.957 31.7983Z" fill="#F9C7C5"/>
<path d="M102.562 31.7982C102.464 31.7983 102.366 31.7789 102.275 31.7411C102.185 31.7034 102.102 31.648 102.033 31.5782L98.76 28.3042L95.487 31.5772C95.4173 31.6469 95.3346 31.7021 95.2436 31.7398C95.1526 31.7775 95.055 31.7969 94.9565 31.7969C94.858 31.7969 94.7604 31.7775 94.6694 31.7398C94.5784 31.7021 94.4957 31.6469 94.426 31.5772C94.3563 31.5075 94.3011 31.4248 94.2634 31.3338C94.2257 31.2428 94.2063 31.1452 94.2063 31.0467C94.2063 30.9482 94.2257 30.8506 94.2634 30.7596C94.3011 30.6686 94.3563 30.5859 94.426 30.5162L98.23 26.7122C98.2996 26.6425 98.3822 26.5873 98.4731 26.5495C98.5641 26.5118 98.6616 26.4924 98.76 26.4924C98.8585 26.4924 98.9559 26.5118 99.0469 26.5495C99.1378 26.5873 99.2204 26.6425 99.29 26.7122L103.094 30.5172C103.199 30.6221 103.271 30.756 103.3 30.9017C103.329 31.0475 103.314 31.1986 103.257 31.3358C103.2 31.4731 103.104 31.5903 102.98 31.6726C102.856 31.755 102.711 31.7986 102.562 31.7982Z" fill="#F9C7C5"/>
<path d="M110.17 31.7983C110.072 31.7984 109.974 31.779 109.883 31.7413C109.792 31.7035 109.709 31.6481 109.64 31.5783L106.367 28.3043L103.095 31.5773C102.954 31.718 102.763 31.797 102.565 31.797C102.366 31.797 102.175 31.718 102.034 31.5773C101.893 31.4366 101.814 31.2457 101.814 31.0468C101.814 30.8478 101.893 30.657 102.034 30.5163L105.837 26.7123C105.978 26.5718 106.168 26.4929 106.367 26.4929C106.566 26.4929 106.756 26.5718 106.897 26.7123L110.701 30.5173C110.806 30.6222 110.878 30.7559 110.907 30.9016C110.936 31.0472 110.921 31.1982 110.864 31.3355C110.807 31.4727 110.711 31.5899 110.587 31.6723C110.464 31.7547 110.319 31.7985 110.17 31.7983Z" fill="#F9C7C5"/>
</g>
<defs>
<clipPath id="clip0_3143_66">
<rect width="175" height="25" fill="white" transform="translate(0 7)"/>
</clipPath>
</defs>
</svg>
